<?xml version="1.0" encoding="UTF-8"?>
<svg version="1.1" xmlns="http://www.w3.org/2000/svg" width="512" height="512">
<path d="M0 0 C1.20454582 -0.01226624 1.20454582 -0.01226624 2.4334259 -0.02478027 C5.07141426 -0.04942937 7.70934902 -0.06610946 10.34741211 -0.08056641 C11.7165466 -0.08855192 11.7165466 -0.08855192 13.11334038 -0.09669876 C17.9573876 -0.12335898 22.80140985 -0.14274494 27.64550781 -0.15722656 C31.60505747 -0.17047434 35.56408058 -0.19816604 39.5234375 -0.23925781 C82.45159782 -0.67454296 82.45159782 -0.67454296 100.56225586 5.19287109 C101.42674347 5.4712381 102.29123108 5.7496051 103.18191528 6.03640747 C121.69849981 12.11052364 139.46571236 20.77651104 154.56225586 33.19287109 C155.25319336 33.73685547 155.94413086 34.28083984 156.65600586 34.84130859 C165.81187698 42.34207994 172.42680556 52.27314812 173.94116211 64.16943359 C174.23599298 71.53069479 172.5158523 77.49453631 169.56225586 84.19287109 C168.74156616 84.28991333 168.74156616 84.28991333 167.90429688 84.38891602 C133.53379114 88.56993713 99.8822465 101.52852157 77.85131836 129.59521484 C62.44752076 149.77000648 49.97051143 174.33811235 50.60522461 200.32958984 C50.62759102 201.89142642 50.64904876 203.45327623 50.66967773 205.01513672 C50.70690322 207.45796707 50.75023166 209.90011791 50.80908203 212.3425293 C50.86344376 214.71331794 50.89261256 217.08333525 50.91772461 219.45458984 C50.9533979 220.55150398 50.9533979 220.55150398 50.98979187 221.670578 C51.0057069 224.7416346 51.01375502 226.66332817 48.97753906 229.05151367 C42.28345368 232.21484625 36.20316513 232.48597426 28.90795898 232.4675293 C27.85813843 232.47264023 26.80831787 232.47775116 25.72668457 232.48301697 C22.26556649 232.49688342 18.80464838 232.49595745 15.34350586 232.49365234 C12.92321703 232.49754273 10.50292888 232.50187811 8.0826416 232.50663757 C3.00876657 232.51409484 -2.06503889 232.51381339 -7.13891602 232.50854492 C-13.60665645 232.50277088 -20.0741086 232.51963389 -26.54180145 232.5428896 C-31.54359575 232.55770654 -36.54532204 232.5584875 -41.5471344 232.55537987 C-43.92949491 232.55588974 -46.31185957 232.56106402 -48.69419861 232.57119179 C-80.57512276 232.69002822 -80.57512276 232.69002822 -93.68774414 225.50537109 C-94.3497583 225.15651855 -95.01177246 224.80766602 -95.69384766 224.44824219 C-113.59038568 214.78276621 -126.80925554 200.11770463 -132.69555664 180.42724609 C-135.66418392 167.49028088 -135.79315879 154.39638526 -135.43774414 141.19287109 C-135.42372559 140.48163086 -135.40970703 139.77039063 -135.39526367 139.03759766 C-134.50646021 99.87526779 -118.22614917 65.33095582 -90.94555664 37.66552734 C-66.61658941 14.97178578 -33.47287083 0.19288384 0 0 Z " fill="#23776C" transform="translate(187.437744140625,212.80712890625)"/>
<path d="M0 0 C1.05832031 0.37382812 2.11664063 0.74765625 3.20703125 1.1328125 C25.07910668 9.61210233 43.82672326 26.5233314 53.87988281 47.86816406 C64.29900804 71.50647931 64.92258662 97.90409844 55.68286133 122.03320312 C45.87954089 145.71844783 27.42824883 162.61147554 4.04199219 172.64355469 C-17.57843149 181.51007105 -43.3531263 181.11073343 -64.94921875 172.1953125 C-75.0262332 167.7902733 -83.65485803 162.12764958 -92 155 C-92.66257813 154.43925781 -93.32515625 153.87851563 -94.0078125 153.30078125 C-108.94848057 139.50672259 -120.10909038 116.84788938 -121.12451172 96.50561523 C-121.89779617 68.47765608 -115.46655547 44.03170565 -96 23 C-71.56552164 -2.09823329 -33.32405855 -11.84339363 0 0 Z " fill="#23776C" transform="translate(251,20)"/>
<path d="M0 0 C2.50232259 2.09694633 4.27053279 4.23972452 6 7 C6.40992188 7.62132812 6.81984375 8.24265625 7.2421875 8.8828125 C10.94225878 15.59397626 11.676933 24.55520663 10 32 C6.56526067 41.5185907 0.83395429 47.91167368 -6.4375 54.75 C-8.27178238 56.51328622 -10.10385625 58.27887308 -11.93359375 60.046875 C-12.81063965 60.89121094 -13.68768555 61.73554688 -14.59130859 62.60546875 C-17.26646076 65.2648943 -19.7111661 68.05449514 -22.15649414 70.92285156 C-26.91122452 76.28018781 -32.16306318 81.19611745 -37.26171875 86.22265625 C-41.11695904 90.04451783 -44.93867012 93.84191852 -48.46875 97.96875 C-53.45080489 103.78604904 -59.00710875 109.06330896 -64.45703125 114.43652344 C-69.68468257 119.59724391 -74.80469998 124.78752015 -79.58691406 130.36914062 C-85.70664193 137.43199172 -92.31052395 142.31054821 -101.70703125 143.44921875 C-111.76430129 143.98834414 -119.61239797 142.26244974 -127.62734985 135.65930176 C-131.70060325 131.99054563 -135.47306557 128.03147262 -139.25 124.0625 C-141.47919338 121.75667009 -143.71634852 119.4586273 -145.953125 117.16015625 C-146.48528122 116.61027039 -147.01743744 116.06038452 -147.5657196 115.49383545 C-150.97350449 111.98943286 -154.48676716 108.69190065 -158.21630859 105.52807617 C-179.12235997 87.6180056 -179.12235997 87.6180056 -180.23828125 74.1171875 C-180.48085557 63.5205197 -178.42193477 55.60582781 -171.06640625 47.7578125 C-164.01398937 41.7585921 -156.06698248 39.58968911 -147 39.734375 C-136.59518471 40.65563469 -130.11475084 45.81644113 -123 53 C-121.68042174 54.3080328 -120.36005052 55.61526593 -119.0390625 56.921875 C-115.33858878 60.59415711 -111.66245975 64.28983286 -108 68 C-104.56069417 66.51873643 -102.33045662 64.57572554 -99.69921875 61.9296875 C-98.88646484 61.115 -98.07371094 60.3003125 -97.23632812 59.4609375 C-95.9746582 58.18089844 -95.9746582 58.18089844 -94.6875 56.875 C-93.85798828 56.04484375 -93.02847656 55.2146875 -92.17382812 54.359375 C-88.50735194 50.66685439 -84.90848836 46.95778946 -81.51953125 43.0078125 C-76.48173422 37.15202454 -70.88188889 31.83887563 -65.3828125 26.421875 C-60.94022911 22.01980148 -56.65535688 17.56811926 -52.58203125 12.82226562 C-50.15674784 10.02869844 -47.60122504 7.37904563 -45 4.75 C-44.27683594 3.99589844 -44.27683594 3.99589844 -43.5390625 3.2265625 C-30.89120412 -9.55513565 -14.6590784 -9.38435221 0 0 Z " fill="#23776C" transform="translate(449,353)"/>
</svg>
