<svg width="22" height="22" viewBox="0 0 22 22" fill="none" xmlns="http://www.w3.org/2000/svg">
<path fill-rule="evenodd" clip-rule="evenodd" d="M19.5031 15.4633C20.2939 14.0748 20.75 12.4748 20.75 10.7681C20.75 5.45874 16.3853 1.15552 11 1.15552C5.61475 1.15552 1.25 5.45874 1.25 10.7681C1.25 16.0774 5.61475 20.3806 11 20.3806C12.7312 20.3806 14.354 19.931 15.7623 19.1513L20.75 20.3806L19.5031 15.4633Z" stroke="white" stroke-width="1.5" stroke-linecap="round" stroke-linejoin="round"/>
<path d="M10.8083 11.1131C10.9144 11.0084 11.0856 11.0084 11.1918 11.1131C11.2979 11.2177 11.2979 11.3865 11.1918 11.4911C11.0856 11.5958 10.9144 11.5958 10.8083 11.4911C10.7032 11.3865 10.7032 11.2177 10.8083 11.1131" stroke="white" stroke-width="1.5" stroke-linecap="round" stroke-linejoin="round"/>
<path d="M6.47491 11.1131C6.58107 11.0084 6.75224 11.0084 6.85841 11.1131C6.96457 11.2177 6.96457 11.3865 6.85841 11.4911C6.75224 11.5958 6.58107 11.5958 6.47491 11.4911C6.36982 11.3865 6.36982 11.2177 6.47491 11.1131" stroke="white" stroke-width="1.5" stroke-linecap="round" stroke-linejoin="round"/>
<path d="M15.1416 11.1131C15.2478 11.0084 15.4189 11.0084 15.5251 11.1131C15.6313 11.2177 15.6313 11.3865 15.5251 11.4911C15.4189 11.5958 15.2478 11.5958 15.1416 11.4911C15.0365 11.3865 15.0365 11.2177 15.1416 11.1131" stroke="white" stroke-width="1.5" stroke-linecap="round" stroke-linejoin="round"/>
</svg>
