<svg width="44" height="44" viewBox="0 0 44 44" fill="none" xmlns="http://www.w3.org/2000/svg">
<circle cx="22" cy="22" r="22" fill="#F2F8F7"/>
<ellipse cx="20" cy="27.5" rx="7" ry="3.5" stroke="#797C7B" stroke-width="1.5" stroke-linejoin="round"/>
<circle cx="20" cy="17" r="4" stroke="#797C7B" stroke-width="1.5" stroke-linejoin="round"/>
<path d="M25.3402 14.2654C27.2517 14.4373 28.7502 16.0435 28.7504 17.9998C28.7504 20.0707 27.0713 21.7495 25.0004 21.7498C24.6088 21.7498 24.2312 21.6892 23.8763 21.5779C24.3281 21.195 24.7212 20.7462 25.0433 20.2468C26.2659 20.2237 27.2504 19.2279 27.2504 17.9998C27.2503 17.0792 26.6966 16.2885 25.9047 15.9402C25.7989 15.347 25.6066 14.7845 25.3402 14.2654Z" fill="#797C7B"/>
<path d="M25.7523 23.2703C27.1923 23.3416 28.5097 23.614 29.5316 24.0398C30.1285 24.2885 30.6608 24.6036 31.0551 24.9919C31.452 25.383 31.7503 25.8934 31.7504 26.4998C31.7504 27.1061 31.4519 27.6165 31.0551 28.0076C30.6608 28.3958 30.1284 28.711 29.5316 28.9597C29.2142 29.092 28.8675 29.2078 28.4984 29.3093C28.8125 28.7586 28.9877 28.1692 28.9974 27.5544C29.4628 27.3559 29.7959 27.1415 30.0023 26.9382C30.2122 26.7313 30.2504 26.5836 30.2504 26.4998C30.2503 26.4158 30.2122 26.2681 30.0023 26.0613C29.7895 25.8516 29.443 25.6281 28.9545 25.4246C28.7072 25.3215 28.4322 25.2275 28.1342 25.1443C27.5698 24.4179 26.7529 23.779 25.7523 23.2703Z" fill="#797C7B"/>
</svg>
