<svg width="22" height="22" viewBox="0 0 22 22" fill="none" xmlns="http://www.w3.org/2000/svg">
<path fill-rule="evenodd" clip-rule="evenodd" d="M2.49692 15.7623C1.70608 14.354 1.25 12.7312 1.25 11C1.25 5.61475 5.61475 1.25 11 1.25C16.3853 1.25 20.75 5.61475 20.75 11C20.75 16.3853 16.3853 20.75 11 20.75C9.26883 20.75 7.646 20.2939 6.23767 19.5031L1.25 20.75L2.49692 15.7623Z" fill="white" stroke="white" stroke-width="1.5" stroke-linecap="round" stroke-linejoin="round"/>
<path d="M10.8083 11.3499C10.9144 11.2438 11.0856 11.2438 11.1918 11.3499C11.2979 11.4561 11.2979 11.6273 11.1918 11.7334C11.0856 11.8396 10.9144 11.8396 10.8083 11.7334C10.7032 11.6273 10.7032 11.4561 10.8083 11.3499" stroke="#24786D" stroke-width="1.5" stroke-linecap="round" stroke-linejoin="round"/>
<path d="M6.475 11.3499C6.58117 11.2438 6.75233 11.2438 6.8585 11.3499C6.96467 11.4561 6.96467 11.6273 6.8585 11.7334C6.75233 11.8396 6.58117 11.8396 6.475 11.7334C6.36992 11.6273 6.36992 11.4561 6.475 11.3499" stroke="#24786D" stroke-width="1.5" stroke-linecap="round" stroke-linejoin="round"/>
<path d="M15.1415 11.3499C15.2477 11.2438 15.4188 11.2438 15.525 11.3499C15.6312 11.4561 15.6312 11.6273 15.525 11.7334C15.4188 11.8396 15.2477 11.8396 15.1415 11.7334C15.0364 11.6273 15.0364 11.4561 15.1415 11.3499" stroke="#24786D" stroke-width="1.5" stroke-linecap="round" stroke-linejoin="round"/>
</svg>
