<svg width="24" height="25" viewBox="0 0 24 25" fill="none" xmlns="http://www.w3.org/2000/svg">
<path d="M12 14.7402C10.8954 14.7402 10 13.8574 10 12.7684C10 11.6794 10.8954 10.7966 12 10.7966C13.1046 10.7966 14 11.6794 14 12.7684C14 13.8574 13.1046 14.7402 12 14.7402Z" fill="white"/>
<path d="M20 14.7402C18.8954 14.7402 18 13.8574 18 12.7684C18 11.6794 18.8954 10.7966 20 10.7966C21.1046 10.7966 22 11.6794 22 12.7684C22 13.8574 21.1046 14.7402 20 14.7402Z" fill="white"/>
<path d="M4 14.7402C2.89543 14.7402 2 13.8574 2 12.7684C2 11.6794 2.89543 10.7966 4 10.7966C5.10457 10.7966 6 11.6794 6 12.7684C6 13.8574 5.10457 14.7402 4 14.7402Z" fill="white"/>
</svg>
