<svg width="20" height="20" viewBox="0 0 20 20" fill="none" xmlns="http://www.w3.org/2000/svg">
<path d="M19 16.6697V15.047C19 14.2407 18.5021 13.5156 17.7428 13.2162L15.7086 12.414C14.7429 12.0332 13.6422 12.4457 13.177 13.363L13 13.712C13 13.712 10.5 13.2191 8.5 11.2472C6.5 9.27544 6 6.81068 6 6.81068L6.35402 6.63617C7.28438 6.17754 7.70285 5.09239 7.31654 4.14022L6.50289 2.13476C6.19916 1.38615 5.46374 0.895264 4.64593 0.895264H3C1.89543 0.895264 1 1.77807 1 2.86707C1 11.5791 8.16344 18.6415 17 18.6415C18.1046 18.6415 19 17.7587 19 16.6697Z" stroke="white" stroke-width="1.5" stroke-linejoin="round"/>
</svg>
