<?xml version="1.0" encoding="UTF-8"?>
<svg version="1.1" xmlns="http://www.w3.org/2000/svg" width="512" height="512">
<path d="M0 0 C1.19625 0.31710938 2.3925 0.63421875 3.625 0.9609375 C19.10614606 5.5856019 33.66090721 13.60365799 46 24 C46.98097656 24.80695312 47.96195312 25.61390625 48.97265625 26.4453125 C71.9140648 45.95494992 85.16910784 74.60834972 88.75 104.1875 C88.86230489 105.78989906 88.94293314 107.3946843 89 109 C89.03996094 110.11246094 89.07992188 111.22492188 89.12109375 112.37109375 C89.61130684 140.08255128 82.00214932 168.41070653 64 190 C63.14738429 191.0746861 62.29588744 192.15026048 61.4453125 193.2265625 C55.64230152 200.44859588 49.47032999 206.45467452 42 212 C41.21238281 212.60199219 40.42476563 213.20398438 39.61328125 213.82421875 C24.67879588 224.80908816 8.05549795 231.2576262 -10 235 C-9.06285156 235.14695313 -8.12570313 235.29390625 -7.16015625 235.4453125 C27.34160487 241.07211563 60.87198332 251.49270051 89 273 C89.66 273.99 90.32 274.98 91 276 C89.91203125 276.73863281 88.8240625 277.47726562 87.703125 278.23828125 C78.45751275 284.59160599 70.03464463 291.16653583 62 299 C61.37222656 299.56589844 60.74445313 300.13179688 60.09765625 300.71484375 C37.86149692 321.27675109 23.09841391 356.01993911 21.87548828 386.05834961 C20.95518182 426.25745007 30.81269858 462.60079101 58.69921875 492.6171875 C62.74181709 496.80391923 66.85274051 500.91720568 71 505 C72.33401758 506.33264873 73.66745456 507.66587924 75 509 C36.24695649 509.09152848 -2.50607076 509.16202497 -41.25920046 509.20426132 C-45.83295673 509.20926423 -50.40671279 509.21444151 -54.98046875 509.21972656 C-56.34631421 509.22130043 -56.34631421 509.22130043 -57.73975252 509.22290608 C-72.48911231 509.24031773 -87.23840983 509.2718596 -101.98773266 509.30861118 C-117.11862379 509.34599948 -132.24948228 509.36823138 -147.3804177 509.37635398 C-156.71922542 509.38184614 -166.05785712 509.39920101 -175.39661066 509.43166587 C-181.79801941 509.4527877 -188.19933698 509.45920534 -194.60077806 509.45400551 C-198.29572834 509.45144008 -201.99037076 509.45540986 -205.68526649 509.4768219 C-209.69021094 509.49986138 -213.6944979 509.49196302 -217.69949341 509.48101807 C-219.45338668 509.49849512 -219.45338668 509.49849512 -221.24271214 509.51632524 C-227.46626299 509.47019121 -231.29700222 509.23415273 -236 505 C-239.25473269 500.97657185 -239.37891626 497.69663824 -239.38818359 492.60546875 C-239.39344055 491.87769226 -239.39869751 491.14991577 -239.40411377 490.40008545 C-239.41730121 487.99567077 -239.40856575 485.59192143 -239.3984375 483.1875 C-239.40046208 481.49617386 -239.4033767 479.80484857 -239.40713501 478.11352539 C-239.41155958 474.55932344 -239.40513599 471.00534751 -239.39111328 467.45117188 C-239.37422765 462.95838777 -239.38401461 458.46614445 -239.40142918 453.97338009 C-239.52077467 417.79868095 -239.52077467 417.79868095 -236 401 C-235.77570313 399.8744873 -235.55140625 398.74897461 -235.3203125 397.58935547 C-234.72441999 394.8450899 -234.05272588 392.14597148 -233.3125 389.4375 C-232.92795654 388.01147461 -232.92795654 388.01147461 -232.53564453 386.55664062 C-225.61289663 361.79783015 -213.77268841 338.28688475 -198 318 C-197.56929199 317.44231934 -197.13858398 316.88463867 -196.69482422 316.31005859 C-183.98681431 300.07942573 -168.86106866 285.81208232 -152 274 C-151.42926758 273.59523438 -150.85853516 273.19046875 -150.27050781 272.7734375 C-121.94191292 252.90794698 -87.91944846 239.89677311 -53.5 236.32421875 C-51.06335035 236.26678137 -51.06335035 236.26678137 -50 235 C-50.53665283 234.89042969 -51.07330566 234.78085938 -51.6262207 234.66796875 C-82.67119476 228.18145118 -111.28571233 214.0199619 -129.46850586 187.02612305 C-143.46572821 165.52943894 -150.44701121 142.64435454 -150.375 117 C-150.37445618 116.27144806 -150.37391235 115.54289612 -150.37335205 114.79226685 C-150.33344853 103.15177069 -149.54914694 92.1490965 -146 81 C-145.78037598 80.30712891 -145.56075195 79.61425781 -145.33447266 78.90039062 C-140.53489371 64.26727943 -133.82430004 50.93544404 -124 39 C-123.28972656 38.13632812 -122.57945313 37.27265625 -121.84765625 36.3828125 C-93.01450434 2.90924373 -42.57582658 -11.68934524 0 0 Z " fill="#F0494B" transform="translate(239,3)"/>
<path d="M0 0 C19.92165397 17.0971858 33.5464415 43.1917122 36.48779297 69.27685547 C38.28588249 104.20852262 30.36292803 134.5139888 7.48779297 161.27685547 C6.91673828 161.95103516 6.34568359 162.62521484 5.75732422 163.31982422 C-13.2061014 183.84322315 -42.65939952 194.33347223 -70.00439453 195.49560547 C-98.34323602 196.27374172 -127.03555824 188.37573243 -148.51220703 169.27685547 C-149.25470703 168.67615234 -149.99720703 168.07544922 -150.76220703 167.45654297 C-172.22439612 149.64590689 -183.49096261 121.41050774 -186.51220703 94.27685547 C-188.03028593 63.28895805 -181.17421783 35.09940329 -160.51220703 11.27685547 C-159.84833984 10.46861328 -159.18447266 9.66037109 -158.50048828 8.82763672 C-141.98357643 -10.6201874 -116.4502027 -24.70333143 -90.98486328 -27.52832031 C-56.55788837 -30.24087225 -26.54086728 -22.35145684 0 0 Z M-115.88720703 48.02685547 C-117.79942091 51.85128322 -118.50385336 55.12798223 -117.51220703 59.27685547 C-114.48285334 65.79793788 -109.88688926 70.25539679 -104.76220703 75.21435547 C-103.96943359 75.99359375 -103.17666016 76.77283203 -102.35986328 77.57568359 C-100.41732416 79.48311659 -98.46811317 81.38314791 -96.51220703 83.27685547 C-100.81749238 88.4595167 -105.37711543 93.20615571 -110.27587891 97.82568359 C-114.67282821 102.09909153 -117.25439678 105.95656323 -117.94970703 112.21435547 C-117.75550322 116.82228231 -116.20898301 119.55967777 -113.51220703 123.27685547 C-109.75739199 126.7003633 -105.97006933 126.65741342 -101.10986328 126.77294922 C-93.76161882 125.36960028 -88.63270692 118.63242569 -83.63720703 113.52685547 C-82.85345703 112.73408203 -82.06970703 111.94130859 -81.26220703 111.12451172 C-79.34089989 109.179774 -77.42444156 107.23050794 -75.51220703 105.27685547 C-70.04886873 109.80888446 -65.06349689 114.66393081 -60.14306641 119.77294922 C-55.88274679 124.11938707 -52.94051481 126.5536731 -46.63720703 126.65185547 C-41.84867651 126.54607055 -39.14511176 125.55533047 -35.51220703 122.27685547 C-32.14082644 118.45595747 -32.13214808 114.75570896 -32.01611328 109.87451172 C-33.41946222 102.52626726 -40.15663681 97.39735535 -45.26220703 92.40185547 C-46.05498047 91.61810547 -46.84775391 90.83435547 -47.66455078 90.02685547 C-49.6092885 88.10554832 -51.55855456 86.18909 -53.51220703 84.27685547 C-48.98017804 78.81351717 -44.12513169 73.82814533 -39.01611328 68.90771484 C-34.66967543 64.64739523 -32.2353894 61.70516325 -32.13720703 55.40185547 C-32.25017497 50.60777839 -33.17383258 47.87878579 -36.51220703 44.27685547 C-40.37060925 41.64612668 -43.62720394 40.9292441 -48.28955078 40.78076172 C-56.03489743 42.5095122 -61.15304018 48.55317919 -66.44970703 54.02685547 C-67.22894531 54.81962891 -68.00818359 55.61240234 -68.81103516 56.42919922 C-70.71846815 58.37173834 -72.61849948 60.32094933 -74.51220703 62.27685547 C-79.69486826 57.97157012 -84.44150727 53.41194707 -89.06103516 48.51318359 C-92.72556235 44.74271738 -96.33488598 41.92516914 -101.63720703 40.84326172 C-108.10682957 40.82978334 -111.6269447 43.09392014 -115.88720703 48.02685547 Z " fill="#F0494B" transform="translate(475.51220703125,316.72314453125)"/>
</svg>
